<?xml version="1.0" encoding="UTF-8"?>
<svg width="1200" height="675" viewBox="0 0 1200 675" xmlns="http://www.w3.org/2000/svg">
  <rect width="1200" height="675" fill="#001a33"/>
  
  <!-- Network visualization with blue nodes -->
  <g>
    <!-- Nodes -->
    <circle cx="200" cy="400" r="2" fill="#00e1ff" opacity="0.9"/>
    <circle cx="240" cy="380" r="2" fill="#00e1ff" opacity="0.9"/>
    <circle cx="270" cy="420" r="2" fill="#00e1ff" opacity="0.9"/>
    <circle cx="310" cy="390" r="2" fill="#00e1ff" opacity="0.9"/>
    <circle cx="330" cy="450" r="2" fill="#00e1ff" opacity="0.9"/>
    <circle cx="380" cy="420" r="2" fill="#00e1ff" opacity="0.9"/>
    <circle cx="410" cy="470" r="2" fill="#00e1ff" opacity="0.9"/>
    <circle cx="450" cy="430" r="2" fill="#00e1ff" opacity="0.9"/>
    <circle cx="490" cy="470" r="2" fill="#00e1ff" opacity="0.9"/>
    <circle cx="520" cy="440" r="2" fill="#00e1ff" opacity="0.9"/>
    
    <circle cx="220" cy="350" r="2" fill="#00e1ff" opacity="0.9"/>
    <circle cx="260" cy="320" r="2" fill="#00e1ff" opacity="0.9"/>
    <circle cx="300" cy="340" r="2" fill="#00e1ff" opacity="0.9"/>
    <circle cx="350" cy="310" r="2" fill="#00e1ff" opacity="0.9"/>
    <circle cx="390" cy="350" r="2" fill="#00e1ff" opacity="0.9"/>
    <circle cx="430" cy="320" r="2" fill="#00e1ff" opacity="0.9"/>
    <circle cx="470" cy="360" r="2" fill="#00e1ff" opacity="0.9"/>
    <circle cx="510" cy="330" r="2" fill="#00e1ff" opacity="0.9"/>
    <circle cx="550" cy="370" r="2" fill="#00e1ff" opacity="0.9"/>
    <circle cx="590" cy="340" r="2" fill="#00e1ff" opacity="0.9"/>
    
    <circle cx="250" cy="270" r="2" fill="#00e1ff" opacity="0.9"/>
    <circle cx="300" cy="240" r="2" fill="#00e1ff" opacity="0.9"/>
    <circle cx="350" cy="260" r="2" fill="#00e1ff" opacity="0.9"/>
    <circle cx="400" cy="230" r="2" fill="#00e1ff" opacity="0.9"/>
    <circle cx="450" cy="250" r="2" fill="#00e1ff" opacity="0.9"/>
    <circle cx="500" cy="220" r="2" fill="#00e1ff" opacity="0.9"/>
    <circle cx="550" cy="250" r="2" fill="#00e1ff" opacity="0.9"/>
    <circle cx="600" cy="230" r="2" fill="#00e1ff" opacity="0.9"/>
    <circle cx="650" cy="260" r="2" fill="#00e1ff" opacity="0.9"/>
    <circle cx="700" cy="240" r="2" fill="#00e1ff" opacity="0.9"/>
    
    <circle cx="230" cy="480" r="2" fill="#00e1ff" opacity="0.9"/>
    <circle cx="290" cy="510" r="2" fill="#00e1ff" opacity="0.9"/>
    <circle cx="350" cy="490" r="2" fill="#00e1ff" opacity="0.9"/>
    <circle cx="410" cy="520" r="2" fill="#00e1ff" opacity="0.9"/>
    <circle cx="470" cy="500" r="2" fill="#00e1ff" opacity="0.9"/>
    <circle cx="530" cy="530" r="2" fill="#00e1ff" opacity="0.9"/>
    <circle cx="590" cy="510" r="2" fill="#00e1ff" opacity="0.9"/>
    <circle cx="650" cy="540" r="2" fill="#00e1ff" opacity="0.9"/>
    <circle cx="710" cy="520" r="2" fill="#00e1ff" opacity="0.9"/>
    <circle cx="770" cy="550" r="2" fill="#00e1ff" opacity="0.9"/>
    
    <circle cx="630" cy="400" r="2" fill="#00e1ff" opacity="0.9"/>
    <circle cx="670" cy="430" r="2" fill="#00e1ff" opacity="0.9"/>
    <circle cx="710" cy="390" r="2" fill="#00e1ff" opacity="0.9"/>
    <circle cx="750" cy="420" r="2" fill="#00e1ff" opacity="0.9"/>
    <circle cx="790" cy="380" r="2" fill="#00e1ff" opacity="0.9"/>
    <circle cx="830" cy="410" r="2" fill="#00e1ff" opacity="0.9"/>
    <circle cx="870" cy="370" r="2" fill="#00e1ff" opacity="0.9"/>
    <circle cx="910" cy="400" r="2" fill="#00e1ff" opacity="0.9"/>
    <circle cx="950" cy="360" r="2" fill="#00e1ff" opacity="0.9"/>
    <circle cx="990" cy="390" r="2" fill="#00e1ff" opacity="0.9"/>
    
    <circle cx="620" cy="310" r="2" fill="#00e1ff" opacity="0.9"/>
    <circle cx="670" cy="280" r="2" fill="#00e1ff" opacity="0.9"/>
    <circle cx="720" cy="320" r="2" fill="#00e1ff" opacity="0.9"/>
    <circle cx="770" cy="290" r="2" fill="#00e1ff" opacity="0.9"/>
    <circle cx="820" cy="330" r="2" fill="#00e1ff" opacity="0.9"/>
    <circle cx="870" cy="300" r="2" fill="#00e1ff" opacity="0.9"/>
    <circle cx="920" cy="340" r="2" fill="#00e1ff" opacity="0.9"/>
    <circle cx="970" cy="310" r="2" fill="#00e1ff" opacity="0.9"/>
    <circle cx="1020" cy="350" r="2" fill="#00e1ff" opacity="0.9"/>
    <circle cx="1070" cy="320" r="2" fill="#00e1ff" opacity="0.9"/>
    
    <!-- Connections -->
    <line x1="200" y1="400" x2="240" y2="380" stroke="#00e1ff" stroke-width="0.5" opacity="0.3"/>
    <line x1="240" y1="380" x2="270" y2="420" stroke="#00e1ff" stroke-width="0.5" opacity="0.3"/>
    <line x1="270" y1="420" x2="310" y2="390" stroke="#00e1ff" stroke-width="0.5" opacity="0.3"/>
    <line x1="310" y1="390" x2="330" y2="450" stroke="#00e1ff" stroke-width="0.5" opacity="0.3"/>
    <line x1="330" y1="450" x2="380" y2="420" stroke="#00e1ff" stroke-width="0.5" opacity="0.3"/>
    <line x1="380" y1="420" x2="410" y2="470" stroke="#00e1ff" stroke-width="0.5" opacity="0.3"/>
    <line x1="410" y1="470" x2="450" y2="430" stroke="#00e1ff" stroke-width="0.5" opacity="0.3"/>
    <line x1="450" y1="430" x2="490" y2="470" stroke="#00e1ff" stroke-width="0.5" opacity="0.3"/>
    <line x1="490" y1="470" x2="520" y2="440" stroke="#00e1ff" stroke-width="0.5" opacity="0.3"/>
    
    <line x1="220" y1="350" x2="260" y2="320" stroke="#00e1ff" stroke-width="0.5" opacity="0.3"/>
    <line x1="260" y1="320" x2="300" y2="340" stroke="#00e1ff" stroke-width="0.5" opacity="0.3"/>
    <line x1="300" y1="340" x2="350" y2="310" stroke="#00e1ff" stroke-width="0.5" opacity="0.3"/>
    <line x1="350" y1="310" x2="390" y2="350" stroke="#00e1ff" stroke-width="0.5" opacity="0.3"/>
    <line x1="390" y1="350" x2="430" y2="320" stroke="#00e1ff" stroke-width="0.5" opacity="0.3"/>
    <line x1="430" y1="320" x2="470" y2="360" stroke="#00e1ff" stroke-width="0.5" opacity="0.3"/>
    <line x1="470" y1="360" x2="510" y2="330" stroke="#00e1ff" stroke-width="0.5" opacity="0.3"/>
    <line x1="510" y1="330" x2="550" y2="370" stroke="#00e1ff" stroke-width="0.5" opacity="0.3"/>
    <line x1="550" y1="370" x2="590" y2="340" stroke="#00e1ff" stroke-width="0.5" opacity="0.3"/>
    
    <line x1="240" y1="380" x2="220" y2="350" stroke="#00e1ff" stroke-width="0.5" opacity="0.3"/>
    <line x1="270" y1="420" x2="300" y2="340" stroke="#00e1ff" stroke-width="0.5" opacity="0.3"/>
    <line x1="310" y1="390" x2="350" y2="310" stroke="#00e1ff" stroke-width="0.5" opacity="0.3"/>
    <line x1="330" y1="450" x2="390" y2="350" stroke="#00e1ff" stroke-width="0.5" opacity="0.3"/>
    <line x1="380" y1="420" x2="430" y2="320" stroke="#00e1ff" stroke-width="0.5" opacity="0.3"/>
    <line x1="410" y1="470" x2="470" y2="360" stroke="#00e1ff" stroke-width="0.5" opacity="0.3"/>
    <line x1="450" y1="430" x2="510" y2="330" stroke="#00e1ff" stroke-width="0.5" opacity="0.3"/>
    <line x1="490" y1="470" x2="550" y2="370" stroke="#00e1ff" stroke-width="0.5" opacity="0.3"/>
    <line x1="520" y1="440" x2="590" y2="340" stroke="#00e1ff" stroke-width="0.5" opacity="0.3"/>
    
    <line x1="250" y1="270" x2="300" y2="240" stroke="#00e1ff" stroke-width="0.5" opacity="0.3"/>
    <line x1="300" y1="240" x2="350" y2="260" stroke="#00e1ff" stroke-width="0.5" opacity="0.3"/>
    <line x1="350" y1="260" x2="400" y2="230" stroke="#00e1ff" stroke-width="0.5" opacity="0.3"/>
    <line x1="400" y1="230" x2="450" y2="250" stroke="#00e1ff" stroke-width="0.5" opacity="0.3"/>
    <line x1="450" y1="250" x2="500" y2="220" stroke="#00e1ff" stroke-width="0.5" opacity="0.3"/>
    <line x1="500" y1="220" x2="550" y2="250" stroke="#00e1ff" stroke-width="0.5" opacity="0.3"/>
    <line x1="550" y1="250" x2="600" y2="230" stroke="#00e1ff" stroke-width="0.5" opacity="0.3"/>
    <line x1="600" y1="230" x2="650" y2="260" stroke="#00e1ff" stroke-width="0.5" opacity="0.3"/>
    <line x1="650" y1="260" x2="700" y2="240" stroke="#00e1ff" stroke-width="0.5" opacity="0.3"/>
    
    <line x1="230" y1="480" x2="290" y2="510" stroke="#00e1ff" stroke-width="0.5" opacity="0.3"/>
    <line x1="290" y1="510" x2="350" y2="490" stroke="#00e1ff" stroke-width="0.5" opacity="0.3"/>
    <line x1="350" y1="490" x2="410" y2="520" stroke="#00e1ff" stroke-width="0.5" opacity="0.3"/>
    <line x1="410" y1="520" x2="470" y2="500" stroke="#00e1ff" stroke-width="0.5" opacity="0.3"/>
    <line x1="470" y1="500" x2="530" y2="530" stroke="#00e1ff" stroke-width="0.5" opacity="0.3"/>
    <line x1="530" y1="530" x2="590" y2="510" stroke="#00e1ff" stroke-width="0.5" opacity="0.3"/>
    <line x1="590" y1="510" x2="650" y2="540" stroke="#00e1ff" stroke-width="0.5" opacity="0.3"/>
    <line x1="650" y1="540" x2="710" y2="520" stroke="#00e1ff" stroke-width="0.5" opacity="0.3"/>
    <line x1="710" y1="520" x2="770" y2="550" stroke="#00e1ff" stroke-width="0.5" opacity="0.3"/>
    
    <line x1="630" y1="400" x2="670" y2="430" stroke="#00e1ff" stroke-width="0.5" opacity="0.3"/>
    <line x1="670" y1="430" x2="710" y2="390" stroke="#00e1ff" stroke-width="0.5" opacity="0.3"/>
    <line x1="710" y1="390" x2="750" y2="420" stroke="#00e1ff" stroke-width="0.5" opacity="0.3"/>
    <line x1="750" y1="420" x2="790" y2="380" stroke="#00e1ff" stroke-width="0.5" opacity="0.3"/>
    <line x1="790" y1="380" x2="830" y2="410" stroke="#00e1ff" stroke-width="0.5" opacity="0.3"/>
    <line x1="830" y1="410" x2="870" y2="370" stroke="#00e1ff" stroke-width="0.5" opacity="0.3"/>
    <line x1="870" y1="370" x2="910" y2="400" stroke="#00e1ff" stroke-width="0.5" opacity="0.3"/>
    <line x1="910" y1="400" x2="950" y2="360" stroke="#00e1ff" stroke-width="0.5" opacity="0.3"/>
    <line x1="950" y1="360" x2="990" y2="390" stroke="#00e1ff" stroke-width="0.5" opacity="0.3"/>
    
    <line x1="620" y1="310" x2="670" y2="280" stroke="#00e1ff" stroke-width="0.5" opacity="0.3"/>
    <line x1="670" y1="280" x2="720" y2="320" stroke="#00e1ff" stroke-width="0.5" opacity="0.3"/>
    <line x1="720" y1="320" x2="770" y2="290" stroke="#00e1ff" stroke-width="0.5" opacity="0.3"/>
    <line x1="770" y1="290" x2="820" y2="330" stroke="#00e1ff" stroke-width="0.5" opacity="0.3"/>
    <line x1="820" y1="330" x2="870" y2="300" stroke="#00e1ff" stroke-width="0.5" opacity="0.3"/>
    <line x1="870" y1="300" x2="920" y2="340" stroke="#00e1ff" stroke-width="0.5" opacity="0.3"/>
    <line x1="920" y1="340" x2="970" y2="310" stroke="#00e1ff" stroke-width="0.5" opacity="0.3"/>
    <line x1="970" y1="310" x2="1020" y2="350" stroke="#00e1ff" stroke-width="0.5" opacity="0.3"/>
    <line x1="1020" y1="350" x2="1070" y2="320" stroke="#00e1ff" stroke-width="0.5" opacity="0.3"/>
    
    <!-- Cross connections -->
    <line x1="520" y1="440" x2="630" y2="400" stroke="#00e1ff" stroke-width="0.5" opacity="0.3"/>
    <line x1="590" y1="340" x2="620" y2="310" stroke="#00e1ff" stroke-width="0.5" opacity="0.3"/>
    <line x1="260" y1="320" x2="250" y2="270" stroke="#00e1ff" stroke-width="0.5" opacity="0.3"/>
    <line x1="200" y1="400" x2="230" y2="480" stroke="#00e1ff" stroke-width="0.5" opacity="0.3"/>
    <line x1="670" y1="430" x2="590" y2="510" stroke="#00e1ff" stroke-width="0.5" opacity="0.3"/>
    <line x1="790" y1="380" x2="720" y2="320" stroke="#00e1ff" stroke-width="0.5" opacity="0.3"/>
  </g>
</svg> 