<?xml version="1.0" encoding="UTF-8"?>
<svg width="1200" height="675" viewBox="0 0 1200 675" xmlns="http://www.w3.org/2000/svg">
  <rect width="1200" height="675" fill="#ffffff"/>
  
  <!-- Network visualization with colorful nodes -->
  <g>
    <!-- Large nodes -->
    <circle cx="600" cy="350" r="8" fill="#f7a700" stroke="#e5e5e5" stroke-width="1"/>
    <circle cx="500" cy="380" r="7" fill="#00a8e1" stroke="#e5e5e5" stroke-width="1"/>
    <circle cx="680" cy="300" r="7" fill="#00a8e1" stroke="#e5e5e5" stroke-width="1"/>
    <circle cx="750" cy="400" r="7" fill="#00a8e1" stroke="#e5e5e5" stroke-width="1"/>
    <circle cx="820" cy="350" r="7" fill="#1ca76c" stroke="#e5e5e5" stroke-width="1"/>
    <circle cx="550" cy="280" r="7" fill="#f33356" stroke="#e5e5e5" stroke-width="1"/>
    <circle cx="650" cy="450" r="7" fill="#1ca76c" stroke="#e5e5e5" stroke-width="1"/>
    <circle cx="450" cy="450" r="7" fill="#f33356" stroke="#e5e5e5" stroke-width="1"/>
    <circle cx="400" cy="300" r="7" fill="#1ca76c" stroke="#e5e5e5" stroke-width="1"/>
    <circle cx="900" cy="320" r="7" fill="#f33356" stroke="#e5e5e5" stroke-width="1"/>
    
    <!-- Medium nodes -->
    <circle cx="650" cy="380" r="5" fill="#00a8e1" stroke="#e5e5e5" stroke-width="1"/>
    <circle cx="580" cy="420" r="5" fill="#f7a700" stroke="#e5e5e5" stroke-width="1"/>
    <circle cx="720" cy="350" r="5" fill="#1ca76c" stroke="#e5e5e5" stroke-width="1"/>
    <circle cx="530" cy="330" r="5" fill="#f33356" stroke="#e5e5e5" stroke-width="1"/>
    <circle cx="480" cy="270" r="5" fill="#00a8e1" stroke="#e5e5e5" stroke-width="1"/>
    <circle cx="780" cy="290" r="5" fill="#f7a700" stroke="#e5e5e5" stroke-width="1"/>
    <circle cx="850" cy="420" r="5" fill="#f33356" stroke="#e5e5e5" stroke-width="1"/>
    <circle cx="700" cy="500" r="5" fill="#1ca76c" stroke="#e5e5e5" stroke-width="1"/>
    <circle cx="600" cy="250" r="5" fill="#f7a700" stroke="#e5e5e5" stroke-width="1"/>
    <circle cx="440" cy="380" r="5" fill="#00a8e1" stroke="#e5e5e5" stroke-width="1"/>
    
    <!-- Small nodes -->
    <circle cx="630" cy="320" r="3" fill="#1ca76c" stroke="#e5e5e5" stroke-width="1"/>
    <circle cx="580" cy="300" r="3" fill="#00a8e1" stroke="#e5e5e5" stroke-width="1"/>
    <circle cx="550" cy="370" r="3" fill="#f33356" stroke="#e5e5e5" stroke-width="1"/>
    <circle cx="620" cy="400" r="3" fill="#f7a700" stroke="#e5e5e5" stroke-width="1"/>
    <circle cx="680" cy="370" r="3" fill="#00a8e1" stroke="#e5e5e5" stroke-width="1"/>
    <circle cx="700" cy="330" r="3" fill="#f33356" stroke="#e5e5e5" stroke-width="1"/>
    <circle cx="750" cy="370" r="3" fill="#1ca76c" stroke="#e5e5e5" stroke-width="1"/>
    <circle cx="800" cy="380" r="3" fill="#00a8e1" stroke="#e5e5e5" stroke-width="1"/>
    <circle cx="830" cy="320" r="3" fill="#f7a700" stroke="#e5e5e5" stroke-width="1"/>
    <circle cx="770" cy="450" r="3" fill="#f33356" stroke="#e5e5e5" stroke-width="1"/>
    <circle cx="700" cy="450" r="3" fill="#1ca76c" stroke="#e5e5e5" stroke-width="1"/>
    <circle cx="600" cy="480" r="3" fill="#00a8e1" stroke="#e5e5e5" stroke-width="1"/>
    <circle cx="530" cy="450" r="3" fill="#f7a700" stroke="#e5e5e5" stroke-width="1"/>
    <circle cx="480" cy="420" r="3" fill="#f33356" stroke="#e5e5e5" stroke-width="1"/>
    <circle cx="430" cy="350" r="3" fill="#1ca76c" stroke="#e5e5e5" stroke-width="1"/>
    <circle cx="460" cy="300" r="3" fill="#00a8e1" stroke="#e5e5e5" stroke-width="1"/>
    <circle cx="520" cy="250" r="3" fill="#f7a700" stroke="#e5e5e5" stroke-width="1"/>
    <circle cx="570" cy="230" r="3" fill="#f33356" stroke="#e5e5e5" stroke-width="1"/>
    <circle cx="640" cy="270" r="3" fill="#1ca76c" stroke="#e5e5e5" stroke-width="1"/>
    <circle cx="690" cy="250" r="3" fill="#00a8e1" stroke="#e5e5e5" stroke-width="1"/>
    <circle cx="730" cy="290" r="3" fill="#f7a700" stroke="#e5e5e5" stroke-width="1"/>
    <circle cx="850" cy="300" r="3" fill="#f33356" stroke="#e5e5e5" stroke-width="1"/>
    <circle cx="880" cy="350" r="3" fill="#1ca76c" stroke="#e5e5e5" stroke-width="1"/>
    <circle cx="870" cy="400" r="3" fill="#00a8e1" stroke="#e5e5e5" stroke-width="1"/>
    <circle cx="820" cy="430" r="3" fill="#f7a700" stroke="#e5e5e5" stroke-width="1"/>
    <circle cx="730" cy="470" r="3" fill="#f33356" stroke="#e5e5e5" stroke-width="1"/>
    <circle cx="650" cy="500" r="3" fill="#1ca76c" stroke="#e5e5e5" stroke-width="1"/>
    <circle cx="550" cy="490" r="3" fill="#00a8e1" stroke="#e5e5e5" stroke-width="1"/>
    <circle cx="480" cy="470" r="3" fill="#f7a700" stroke="#e5e5e5" stroke-width="1"/>
    <circle cx="400" cy="430" r="3" fill="#f33356" stroke="#e5e5e5" stroke-width="1"/>
    <circle cx="370" cy="380" r="3" fill="#1ca76c" stroke="#e5e5e5" stroke-width="1"/>
    <circle cx="380" cy="320" r="3" fill="#00a8e1" stroke="#e5e5e5" stroke-width="1"/>
    <circle cx="420" cy="270" r="3" fill="#f7a700" stroke="#e5e5e5" stroke-width="1"/>
    <circle cx="480" cy="230" r="3" fill="#f33356" stroke="#e5e5e5" stroke-width="1"/>
    
    <!-- Connections between nodes (lines) -->
    <!-- Core connections -->
    <line x1="600" y1="350" x2="500" y2="380" stroke="#dddddd" stroke-width="0.8"/>
    <line x1="600" y1="350" x2="680" y2="300" stroke="#dddddd" stroke-width="0.8"/>
    <line x1="600" y1="350" x2="550" y2="280" stroke="#dddddd" stroke-width="0.8"/>
    <line x1="600" y1="350" x2="650" y2="450" stroke="#dddddd" stroke-width="0.8"/>
    <line x1="500" y1="380" x2="450" y2="450" stroke="#dddddd" stroke-width="0.8"/>
    <line x1="500" y1="380" x2="400" y2="300" stroke="#dddddd" stroke-width="0.8"/>
    <line x1="680" y1="300" x2="750" y2="400" stroke="#dddddd" stroke-width="0.8"/>
    <line x1="680" y1="300" x2="820" y2="350" stroke="#dddddd" stroke-width="0.8"/>
    <line x1="750" y1="400" x2="820" y2="350" stroke="#dddddd" stroke-width="0.8"/>
    <line x1="750" y1="400" x2="650" y2="450" stroke="#dddddd" stroke-width="0.8"/>
    <line x1="820" y1="350" x2="900" y2="320" stroke="#dddddd" stroke-width="0.8"/>
    
    <!-- Secondary connections -->
    <line x1="650" y1="380" x2="600" y2="350" stroke="#dddddd" stroke-width="0.7"/>
    <line x1="650" y1="380" x2="580" y2="420" stroke="#dddddd" stroke-width="0.7"/>
    <line x1="650" y1="380" x2="720" y2="350" stroke="#dddddd" stroke-width="0.7"/>
    <line x1="580" y1="420" x2="530" y2="330" stroke="#dddddd" stroke-width="0.7"/>
    <line x1="720" y1="350" x2="780" y2="290" stroke="#dddddd" stroke-width="0.7"/>
    <line x1="530" y1="330" x2="480" y2="270" stroke="#dddddd" stroke-width="0.7"/>
    <line x1="780" y1="290" x2="850" y2="420" stroke="#dddddd" stroke-width="0.7"/>
    <line x1="650" y1="450" x2="700" y2="500" stroke="#dddddd" stroke-width="0.7"/>
    <line x1="550" y1="280" x2="600" y2="250" stroke="#dddddd" stroke-width="0.7"/>
    <line x1="450" y1="450" x2="440" y2="380" stroke="#dddddd" stroke-width="0.7"/>
    
    <!-- Tertiary connections -->
    <line x1="630" y1="320" x2="580" y2="300" stroke="#dddddd" stroke-width="0.5"/>
    <line x1="580" y1="300" x2="550" y2="370" stroke="#dddddd" stroke-width="0.5"/>
    <line x1="550" y1="370" x2="620" y2="400" stroke="#dddddd" stroke-width="0.5"/>
    <line x1="620" y1="400" x2="680" y2="370" stroke="#dddddd" stroke-width="0.5"/>
    <line x1="680" y1="370" x2="700" y2="330" stroke="#dddddd" stroke-width="0.5"/>
    <line x1="700" y1="330" x2="750" y2="370" stroke="#dddddd" stroke-width="0.5"/>
    <line x1="750" y1="370" x2="800" y2="380" stroke="#dddddd" stroke-width="0.5"/>
    <line x1="800" y1="380" x2="830" y2="320" stroke="#dddddd" stroke-width="0.5"/>
    <line x1="830" y1="320" x2="770" y2="450" stroke="#dddddd" stroke-width="0.5"/>
    <line x1="770" y1="450" x2="700" y2="450" stroke="#dddddd" stroke-width="0.5"/>
    <line x1="700" y1="450" x2="600" y2="480" stroke="#dddddd" stroke-width="0.5"/>
    <line x1="600" y1="480" x2="530" y2="450" stroke="#dddddd" stroke-width="0.5"/>
    <line x1="530" y1="450" x2="480" y2="420" stroke="#dddddd" stroke-width="0.5"/>
    <line x1="480" y1="420" x2="430" y2="350" stroke="#dddddd" stroke-width="0.5"/>
    <line x1="430" y1="350" x2="460" y2="300" stroke="#dddddd" stroke-width="0.5"/>
    <line x1="460" y1="300" x2="520" y2="250" stroke="#dddddd" stroke-width="0.5"/>
    <line x1="520" y1="250" x2="570" y2="230" stroke="#dddddd" stroke-width="0.5"/>
    <line x1="570" y1="230" x2="640" y2="270" stroke="#dddddd" stroke-width="0.5"/>
    <line x1="640" y1="270" x2="690" y2="250" stroke="#dddddd" stroke-width="0.5"/>
    <line x1="690" y1="250" x2="730" y2="290" stroke="#dddddd" stroke-width="0.5"/>
  </g>
</svg> 