<?xml version="1.0" encoding="UTF-8"?>
<svg width="1200" height="675" viewBox="0 0 1200 675" xmlns="http://www.w3.org/2000/svg">
  <rect width="1200" height="675" fill="#ffffff" opacity="0.0"/>
  
  <!-- Network visualization with white/gray nodes -->
  <g>
    <!-- Nodes (Right side) -->
    <circle cx="700" cy="200" r="3" fill="#999999" opacity="0.8"/>
    <circle cx="750" cy="230" r="3" fill="#999999" opacity="0.8"/>
    <circle cx="800" cy="210" r="3" fill="#999999" opacity="0.8"/>
    <circle cx="730" cy="270" r="3" fill="#999999" opacity="0.8"/>
    <circle cx="780" cy="290" r="3" fill="#999999" opacity="0.8"/>
    <circle cx="830" cy="250" r="3" fill="#999999" opacity="0.8"/>
    <circle cx="860" cy="200" r="3" fill="#999999" opacity="0.8"/>
    <circle cx="900" cy="230" r="3" fill="#999999" opacity="0.8"/>
    <circle cx="940" cy="210" r="3" fill="#999999" opacity="0.8"/>
    <circle cx="980" cy="190" r="3" fill="#999999" opacity="0.8"/>
    
    <circle cx="720" cy="320" r="3" fill="#999999" opacity="0.8"/>
    <circle cx="770" cy="350" r="3" fill="#999999" opacity="0.8"/>
    <circle cx="820" cy="330" r="3" fill="#999999" opacity="0.8"/>
    <circle cx="860" cy="290" r="3" fill="#999999" opacity="0.8"/>
    <circle cx="900" cy="310" r="3" fill="#999999" opacity="0.8"/>
    <circle cx="940" cy="280" r="3" fill="#999999" opacity="0.8"/>
    <circle cx="980" cy="260" r="3" fill="#999999" opacity="0.8"/>
    <circle cx="1020" cy="290" r="3" fill="#999999" opacity="0.8"/>
    <circle cx="1060" cy="260" r="3" fill="#999999" opacity="0.8"/>
    <circle cx="1100" cy="280" r="3" fill="#999999" opacity="0.8"/>
    
    <circle cx="750" cy="400" r="3" fill="#999999" opacity="0.8"/>
    <circle cx="800" cy="420" r="3" fill="#999999" opacity="0.8"/>
    <circle cx="850" cy="400" r="3" fill="#999999" opacity="0.8"/>
    <circle cx="900" cy="430" r="3" fill="#999999" opacity="0.8"/>
    <circle cx="950" cy="410" r="3" fill="#999999" opacity="0.8"/>
    <circle cx="1000" cy="440" r="3" fill="#999999" opacity="0.8"/>
    <circle cx="1050" cy="410" r="3" fill="#999999" opacity="0.8"/>
    <circle cx="1100" cy="390" r="3" fill="#999999" opacity="0.8"/>
    <circle cx="1050" cy="350" r="3" fill="#999999" opacity="0.8"/>
    <circle cx="980" cy="380" r="3" fill="#999999" opacity="0.8"/>
    
    <!-- Nodes (Left side) -->
    <circle cx="300" cy="200" r="3" fill="#cccccc" opacity="0.8"/>
    <circle cx="350" cy="230" r="3" fill="#cccccc" opacity="0.8"/>
    <circle cx="400" cy="210" r="3" fill="#cccccc" opacity="0.8"/>
    <circle cx="330" cy="270" r="3" fill="#cccccc" opacity="0.8"/>
    <circle cx="380" cy="290" r="3" fill="#cccccc" opacity="0.8"/>
    <circle cx="430" cy="250" r="3" fill="#cccccc" opacity="0.8"/>
    <circle cx="460" cy="200" r="3" fill="#cccccc" opacity="0.8"/>
    <circle cx="500" cy="230" r="3" fill="#cccccc" opacity="0.8"/>
    <circle cx="540" cy="210" r="3" fill="#cccccc" opacity="0.8"/>
    <circle cx="580" cy="190" r="3" fill="#cccccc" opacity="0.8"/>
    
    <circle cx="320" cy="320" r="3" fill="#cccccc" opacity="0.8"/>
    <circle cx="370" cy="350" r="3" fill="#cccccc" opacity="0.8"/>
    <circle cx="420" cy="330" r="3" fill="#cccccc" opacity="0.8"/>
    <circle cx="460" cy="290" r="3" fill="#cccccc" opacity="0.8"/>
    <circle cx="500" cy="310" r="3" fill="#cccccc" opacity="0.8"/>
    <circle cx="540" cy="280" r="3" fill="#cccccc" opacity="0.8"/>
    <circle cx="580" cy="260" r="3" fill="#cccccc" opacity="0.8"/>
    <circle cx="620" cy="290" r="3" fill="#cccccc" opacity="0.8"/>
    <circle cx="660" cy="260" r="3" fill="#cccccc" opacity="0.8"/>
    <circle cx="700" cy="280" r="3" fill="#cccccc" opacity="0.8"/>
    
    <circle cx="350" cy="400" r="3" fill="#cccccc" opacity="0.8"/>
    <circle cx="400" cy="420" r="3" fill="#cccccc" opacity="0.8"/>
    <circle cx="450" cy="400" r="3" fill="#cccccc" opacity="0.8"/>
    <circle cx="500" cy="430" r="3" fill="#cccccc" opacity="0.8"/>
    <circle cx="550" cy="410" r="3" fill="#cccccc" opacity="0.8"/>
    <circle cx="600" cy="440" r="3" fill="#cccccc" opacity="0.8"/>
    <circle cx="650" cy="410" r="3" fill="#cccccc" opacity="0.8"/>
    <circle cx="700" cy="390" r="3" fill="#cccccc" opacity="0.8"/>
    <circle cx="650" cy="350" r="3" fill="#cccccc" opacity="0.8"/>
    <circle cx="580" cy="380" r="3" fill="#cccccc" opacity="0.8"/>
    
    <!-- More nodes -->
    <circle cx="350" cy="500" r="3" fill="#cccccc" opacity="0.8"/>
    <circle cx="400" cy="520" r="3" fill="#cccccc" opacity="0.8"/>
    <circle cx="450" cy="500" r="3" fill="#cccccc" opacity="0.8"/>
    <circle cx="500" cy="530" r="3" fill="#cccccc" opacity="0.8"/>
    <circle cx="550" cy="510" r="3" fill="#cccccc" opacity="0.8"/>
    <circle cx="600" cy="540" r="3" fill="#cccccc" opacity="0.8"/>
    <circle cx="650" cy="510" r="3" fill="#cccccc" opacity="0.8"/>
    <circle cx="700" cy="490" r="3" fill="#cccccc" opacity="0.8"/>
    <circle cx="750" cy="520" r="3" fill="#cccccc" opacity="0.8"/>
    <circle cx="800" cy="500" r="3" fill="#cccccc" opacity="0.8"/>
    
    <circle cx="320" cy="150" r="3" fill="#cccccc" opacity="0.8"/>
    <circle cx="370" cy="130" r="3" fill="#cccccc" opacity="0.8"/>
    <circle cx="420" cy="160" r="3" fill="#cccccc" opacity="0.8"/>
    <circle cx="470" cy="140" r="3" fill="#cccccc" opacity="0.8"/>
    <circle cx="520" cy="170" r="3" fill="#cccccc" opacity="0.8"/>
    <circle cx="570" cy="150" r="3" fill="#cccccc" opacity="0.8"/>
    <circle cx="620" cy="180" r="3" fill="#cccccc" opacity="0.8"/>
    <circle cx="670" cy="160" r="3" fill="#cccccc" opacity="0.8"/>
    <circle cx="720" cy="140" r="3" fill="#cccccc" opacity="0.8"/>
    <circle cx="770" cy="170" r="3" fill="#cccccc" opacity="0.8"/>
    
    <!-- Larger hub nodes -->
    <circle cx="500" cy="350" r="4" fill="#ffffff" opacity="0.9"/>
    <circle cx="700" cy="350" r="4" fill="#ffffff" opacity="0.9"/>
    <circle cx="600" cy="250" r="4" fill="#ffffff" opacity="0.9"/>
    <circle cx="600" cy="450" r="4" fill="#ffffff" opacity="0.9"/>
    <circle cx="850" cy="250" r="4" fill="#ffffff" opacity="0.9"/>
    <circle cx="350" cy="250" r="4" fill="#ffffff" opacity="0.9"/>
    <circle cx="400" cy="350" r="4" fill="#ffffff" opacity="0.9"/>
    <circle cx="800" cy="350" r="4" fill="#ffffff" opacity="0.9"/>
    
    <!-- Connections (horizontal rows) -->
    <line x1="300" y1="200" x2="350" y2="230" stroke="#dddddd" stroke-width="0.5" opacity="0.6"/>
    <line x1="350" y1="230" x2="400" y2="210" stroke="#dddddd" stroke-width="0.5" opacity="0.6"/>
    <line x1="400" y1="210" x2="430" y2="250" stroke="#dddddd" stroke-width="0.5" opacity="0.6"/>
    <line x1="430" y1="250" x2="460" y2="200" stroke="#dddddd" stroke-width="0.5" opacity="0.6"/>
    <line x1="460" y1="200" x2="500" y2="230" stroke="#dddddd" stroke-width="0.5" opacity="0.6"/>
    <line x1="500" y1="230" x2="540" y2="210" stroke="#dddddd" stroke-width="0.5" opacity="0.6"/>
    <line x1="540" y1="210" x2="580" y2="190" stroke="#dddddd" stroke-width="0.5" opacity="0.6"/>
    <line x1="580" y1="190" x2="700" y2="200" stroke="#dddddd" stroke-width="0.5" opacity="0.6"/>
    <line x1="700" y1="200" x2="750" y2="230" stroke="#dddddd" stroke-width="0.5" opacity="0.6"/>
    <line x1="750" y1="230" x2="800" y2="210" stroke="#dddddd" stroke-width="0.5" opacity="0.6"/>
    <line x1="800" y1="210" x2="830" y2="250" stroke="#dddddd" stroke-width="0.5" opacity="0.6"/>
    <line x1="830" y1="250" x2="860" y2="200" stroke="#dddddd" stroke-width="0.5" opacity="0.6"/>
    <line x1="860" y1="200" x2="900" y2="230" stroke="#dddddd" stroke-width="0.5" opacity="0.6"/>
    <line x1="900" y1="230" x2="940" y2="210" stroke="#dddddd" stroke-width="0.5" opacity="0.6"/>
    <line x1="940" y1="210" x2="980" y2="190" stroke="#dddddd" stroke-width="0.5" opacity="0.6"/>
    
    <line x1="320" y1="320" x2="370" y2="350" stroke="#dddddd" stroke-width="0.5" opacity="0.6"/>
    <line x1="370" y1="350" x2="420" y2="330" stroke="#dddddd" stroke-width="0.5" opacity="0.6"/>
    <line x1="420" y1="330" x2="460" y2="290" stroke="#dddddd" stroke-width="0.5" opacity="0.6"/>
    <line x1="460" y1="290" x2="500" y2="310" stroke="#dddddd" stroke-width="0.5" opacity="0.6"/>
    <line x1="500" y1="310" x2="540" y2="280" stroke="#dddddd" stroke-width="0.5" opacity="0.6"/>
    <line x1="540" y1="280" x2="580" y2="260" stroke="#dddddd" stroke-width="0.5" opacity="0.6"/>
    <line x1="580" y1="260" x2="620" y2="290" stroke="#dddddd" stroke-width="0.5" opacity="0.6"/>
    <line x1="620" y1="290" x2="660" y2="260" stroke="#dddddd" stroke-width="0.5" opacity="0.6"/>
    <line x1="660" y1="260" x2="700" y2="280" stroke="#dddddd" stroke-width="0.5" opacity="0.6"/>
    <line x1="700" y1="280" x2="720" y2="320" stroke="#dddddd" stroke-width="0.5" opacity="0.6"/>
    <line x1="720" y1="320" x2="770" y2="350" stroke="#dddddd" stroke-width="0.5" opacity="0.6"/>
    <line x1="770" y1="350" x2="820" y2="330" stroke="#dddddd" stroke-width="0.5" opacity="0.6"/>
    <line x1="820" y1="330" x2="860" y2="290" stroke="#dddddd" stroke-width="0.5" opacity="0.6"/>
    <line x1="860" y1="290" x2="900" y2="310" stroke="#dddddd" stroke-width="0.5" opacity="0.6"/>
    <line x1="900" y1="310" x2="940" y2="280" stroke="#dddddd" stroke-width="0.5" opacity="0.6"/>
    <line x1="940" y1="280" x2="980" y2="260" stroke="#dddddd" stroke-width="0.5" opacity="0.6"/>
    <line x1="980" y1="260" x2="1020" y2="290" stroke="#dddddd" stroke-width="0.5" opacity="0.6"/>
    <line x1="1020" y1="290" x2="1060" y2="260" stroke="#dddddd" stroke-width="0.5" opacity="0.6"/>
    <line x1="1060" y1="260" x2="1100" y2="280" stroke="#dddddd" stroke-width="0.5" opacity="0.6"/>
    
    <line x1="350" y1="400" x2="400" y2="420" stroke="#dddddd" stroke-width="0.5" opacity="0.6"/>
    <line x1="400" y1="420" x2="450" y2="400" stroke="#dddddd" stroke-width="0.5" opacity="0.6"/>
    <line x1="450" y1="400" x2="500" y2="430" stroke="#dddddd" stroke-width="0.5" opacity="0.6"/>
    <line x1="500" y1="430" x2="550" y2="410" stroke="#dddddd" stroke-width="0.5" opacity="0.6"/>
    <line x1="550" y1="410" x2="600" y2="440" stroke="#dddddd" stroke-width="0.5" opacity="0.6"/>
    <line x1="600" y1="440" x2="650" y2="410" stroke="#dddddd" stroke-width="0.5" opacity="0.6"/>
    <line x1="650" y1="410" x2="700" y2="390" stroke="#dddddd" stroke-width="0.5" opacity="0.6"/>
    <line x1="700" y1="390" x2="750" y2="400" stroke="#dddddd" stroke-width="0.5" opacity="0.6"/>
    <line x1="750" y1="400" x2="800" y2="420" stroke="#dddddd" stroke-width="0.5" opacity="0.6"/>
    <line x1="800" y1="420" x2="850" y2="400" stroke="#dddddd" stroke-width="0.5" opacity="0.6"/>
    <line x1="850" y1="400" x2="900" y2="430" stroke="#dddddd" stroke-width="0.5" opacity="0.6"/>
    <line x1="900" y1="430" x2="950" y2="410" stroke="#dddddd" stroke-width="0.5" opacity="0.6"/>
    <line x1="950" y1="410" x2="1000" y2="440" stroke="#dddddd" stroke-width="0.5" opacity="0.6"/>
    <line x1="1000" y1="440" x2="1050" y2="410" stroke="#dddddd" stroke-width="0.5" opacity="0.6"/>
    <line x1="1050" y1="410" x2="1100" y2="390" stroke="#dddddd" stroke-width="0.5" opacity="0.6"/>
    
    <!-- Connections to hub nodes -->
    <line x1="500" y1="350" x2="400" y2="350" stroke="#dddddd" stroke-width="0.5" opacity="0.6"/>
    <line x1="500" y1="350" x2="600" y2="250" stroke="#dddddd" stroke-width="0.5" opacity="0.6"/>
    <line x1="500" y1="350" x2="600" y2="450" stroke="#dddddd" stroke-width="0.5" opacity="0.6"/>
    <line x1="700" y1="350" x2="600" y2="250" stroke="#dddddd" stroke-width="0.5" opacity="0.6"/>
    <line x1="700" y1="350" x2="600" y2="450" stroke="#dddddd" stroke-width="0.5" opacity="0.6"/>
    <line x1="700" y1="350" x2="800" y2="350" stroke="#dddddd" stroke-width="0.5" opacity="0.6"/>
    <line x1="600" y1="250" x2="850" y2="250" stroke="#dddddd" stroke-width="0.5" opacity="0.6"/>
    <line x1="600" y1="250" x2="350" y2="250" stroke="#dddddd" stroke-width="0.5" opacity="0.6"/>
    <line x1="600" y1="450" x2="800" y2="350" stroke="#dddddd" stroke-width="0.5" opacity="0.6"/>
    <line x1="600" y1="450" x2="400" y2="350" stroke="#dddddd" stroke-width="0.5" opacity="0.6"/>
    <line x1="400" y1="350" x2="350" y2="250" stroke="#dddddd" stroke-width="0.5" opacity="0.6"/>
    <line x1="800" y1="350" x2="850" y2="250" stroke="#dddddd" stroke-width="0.5" opacity="0.6"/>
    
    <!-- Vertical connections -->
    <line x1="330" y1="270" x2="320" y2="320" stroke="#dddddd" stroke-width="0.5" opacity="0.6"/>
    <line x1="380" y1="290" x2="370" y2="350" stroke="#dddddd" stroke-width="0.5" opacity="0.6"/>
    <line x1="420" y1="330" x2="450" y2="400" stroke="#dddddd" stroke-width="0.5" opacity="0.6"/>
    <line x1="500" y1="310" x2="500" y2="430" stroke="#dddddd" stroke-width="0.5" opacity="0.6"/>
    <line x1="580" y1="260" x2="580" y2="380" stroke="#dddddd" stroke-width="0.5" opacity="0.6"/>
    <line x1="650" y1="260" x2="650" y2="350" stroke="#dddddd" stroke-width="0.5" opacity="0.6"/>
    <line x1="730" y1="270" x2="720" y2="320" stroke="#dddddd" stroke-width="0.5" opacity="0.6"/>
    <line x1="780" y1="290" x2="770" y2="350" stroke="#dddddd" stroke-width="0.5" opacity="0.6"/>
    <line x1="820" y1="330" x2="850" y2="400" stroke="#dddddd" stroke-width="0.5" opacity="0.6"/>
    <line x1="900" y1="310" x2="900" y2="430" stroke="#dddddd" stroke-width="0.5" opacity="0.6"/>
    <line x1="980" y1="260" x2="980" y2="380" stroke="#dddddd" stroke-width="0.5" opacity="0.6"/>
    <line x1="1050" y1="350" x2="1050" y2="410" stroke="#dddddd" stroke-width="0.5" opacity="0.6"/>
  </g>
</svg> 