<?xml version="1.0" encoding="UTF-8"?>
<svg width="1200" height="675" viewBox="0 0 1200 675" xmlns="http://www.w3.org/2000/svg">
  <rect width="1200" height="675" fill="#0a0e1a"/>
  
  <!-- Blue network on right side -->
  <g opacity="0.8">
    <!-- Nodes -->
    <circle cx="900" cy="300" r="2" fill="#00a8ff"/>
    <circle cx="850" cy="350" r="2" fill="#00a8ff"/>
    <circle cx="950" cy="250" r="2" fill="#00a8ff"/>
    <circle cx="920" cy="200" r="2" fill="#00a8ff"/>
    <circle cx="820" cy="280" r="2" fill="#00a8ff"/>
    <circle cx="880" cy="400" r="2" fill="#00a8ff"/>
    <circle cx="980" cy="320" r="2" fill="#00a8ff"/>
    <circle cx="1000" cy="200" r="2" fill="#00a8ff"/>
    <circle cx="930" cy="350" r="2" fill="#00a8ff"/>
    <circle cx="860" cy="220" r="2" fill="#00a8ff"/>
    <circle cx="970" cy="400" r="2" fill="#00a8ff"/>
    
    <!-- More nodes -->
    <circle cx="1050" cy="280" r="2" fill="#00a8ff"/>
    <circle cx="1100" cy="320" r="2" fill="#00a8ff"/>
    <circle cx="1020" cy="350" r="2" fill="#00a8ff"/>
    <circle cx="950" cy="450" r="2" fill="#00a8ff"/>
    <circle cx="800" cy="420" r="2" fill="#00a8ff"/>
    <circle cx="750" cy="350" r="2" fill="#00a8ff"/>
    <circle cx="820" cy="200" r="2" fill="#00a8ff"/>
    <circle cx="1070" cy="400" r="2" fill="#00a8ff"/>
    <circle cx="1150" cy="350" r="2" fill="#00a8ff"/>
    
    <!-- Connections -->
    <line x1="900" y1="300" x2="850" y2="350" stroke="#00a8ff" stroke-width="0.5" opacity="0.5"/>
    <line x1="900" y1="300" x2="950" y2="250" stroke="#00a8ff" stroke-width="0.5" opacity="0.5"/>
    <line x1="900" y1="300" x2="920" y2="200" stroke="#00a8ff" stroke-width="0.5" opacity="0.5"/>
    <line x1="900" y1="300" x2="820" y2="280" stroke="#00a8ff" stroke-width="0.5" opacity="0.5"/>
    <line x1="850" y1="350" x2="880" y2="400" stroke="#00a8ff" stroke-width="0.5" opacity="0.5"/>
    <line x1="950" y1="250" x2="980" y2="320" stroke="#00a8ff" stroke-width="0.5" opacity="0.5"/>
    <line x1="950" y1="250" x2="1000" y2="200" stroke="#00a8ff" stroke-width="0.5" opacity="0.5"/>
    <line x1="880" y1="400" x2="930" y2="350" stroke="#00a8ff" stroke-width="0.5" opacity="0.5"/>
    <line x1="820" y1="280" x2="860" y2="220" stroke="#00a8ff" stroke-width="0.5" opacity="0.5"/>
    <line x1="930" y1="350" x2="970" y2="400" stroke="#00a8ff" stroke-width="0.5" opacity="0.5"/>
    <line x1="980" y1="320" x2="1050" y2="280" stroke="#00a8ff" stroke-width="0.5" opacity="0.5"/>
    <line x1="1050" y1="280" x2="1100" y2="320" stroke="#00a8ff" stroke-width="0.5" opacity="0.5"/>
    <line x1="970" y1="400" x2="1020" y2="350" stroke="#00a8ff" stroke-width="0.5" opacity="0.5"/>
    <line x1="950" y1="450" x2="880" y2="400" stroke="#00a8ff" stroke-width="0.5" opacity="0.5"/>
    <line x1="800" y1="420" x2="750" y2="350" stroke="#00a8ff" stroke-width="0.5" opacity="0.5"/>
    <line x1="750" y1="350" x2="820" y2="200" stroke="#00a8ff" stroke-width="0.5" opacity="0.5"/>
    <line x1="1020" y1="350" x2="1070" y2="400" stroke="#00a8ff" stroke-width="0.5" opacity="0.5"/>
    <line x1="1070" y1="400" x2="1150" y2="350" stroke="#00a8ff" stroke-width="0.5" opacity="0.5"/>
  </g>
  
  <!-- Red network on left side -->
  <g opacity="0.8">
    <!-- Nodes -->
    <circle cx="300" cy="300" r="2" fill="#ff3e3e"/>
    <circle cx="250" cy="350" r="2" fill="#ff3e3e"/>
    <circle cx="350" cy="250" r="2" fill="#ff3e3e"/>
    <circle cx="320" cy="200" r="2" fill="#ff3e3e"/>
    <circle cx="220" cy="280" r="2" fill="#ff3e3e"/>
    <circle cx="280" cy="400" r="2" fill="#ff3e3e"/>
    <circle cx="380" cy="320" r="2" fill="#ff3e3e"/>
    <circle cx="400" cy="200" r="2" fill="#ff3e3e"/>
    <circle cx="330" cy="350" r="2" fill="#ff3e3e"/>
    <circle cx="260" cy="220" r="2" fill="#ff3e3e"/>
    <circle cx="370" cy="400" r="2" fill="#ff3e3e"/>
    
    <!-- More nodes -->
    <circle cx="150" cy="280" r="2" fill="#ff3e3e"/>
    <circle cx="100" cy="320" r="2" fill="#ff3e3e"/>
    <circle cx="170" cy="350" r="2" fill="#ff3e3e"/>
    <circle cx="200" cy="450" r="2" fill="#ff3e3e"/>
    <circle cx="300" cy="420" r="2" fill="#ff3e3e"/>
    <circle cx="350" cy="450" r="2" fill="#ff3e3e"/>
    <circle cx="200" cy="200" r="2" fill="#ff3e3e"/>
    <circle cx="120" cy="400" r="2" fill="#ff3e3e"/>
    <circle cx="50" cy="350" r="2" fill="#ff3e3e"/>
    
    <!-- Connections -->
    <line x1="300" y1="300" x2="250" y2="350" stroke="#ff3e3e" stroke-width="0.5" opacity="0.5"/>
    <line x1="300" y1="300" x2="350" y2="250" stroke="#ff3e3e" stroke-width="0.5" opacity="0.5"/>
    <line x1="300" y1="300" x2="320" y2="200" stroke="#ff3e3e" stroke-width="0.5" opacity="0.5"/>
    <line x1="300" y1="300" x2="220" y2="280" stroke="#ff3e3e" stroke-width="0.5" opacity="0.5"/>
    <line x1="250" y1="350" x2="280" y2="400" stroke="#ff3e3e" stroke-width="0.5" opacity="0.5"/>
    <line x1="350" y1="250" x2="380" y2="320" stroke="#ff3e3e" stroke-width="0.5" opacity="0.5"/>
    <line x1="350" y1="250" x2="400" y2="200" stroke="#ff3e3e" stroke-width="0.5" opacity="0.5"/>
    <line x1="280" y1="400" x2="330" y2="350" stroke="#ff3e3e" stroke-width="0.5" opacity="0.5"/>
    <line x1="220" y1="280" x2="260" y2="220" stroke="#ff3e3e" stroke-width="0.5" opacity="0.5"/>
    <line x1="330" y1="350" x2="370" y2="400" stroke="#ff3e3e" stroke-width="0.5" opacity="0.5"/>
    <line x1="220" y1="280" x2="150" y2="280" stroke="#ff3e3e" stroke-width="0.5" opacity="0.5"/>
    <line x1="150" y1="280" x2="100" y2="320" stroke="#ff3e3e" stroke-width="0.5" opacity="0.5"/>
    <line x1="250" y1="350" x2="170" y2="350" stroke="#ff3e3e" stroke-width="0.5" opacity="0.5"/>
    <line x1="280" y1="400" x2="200" y2="450" stroke="#ff3e3e" stroke-width="0.5" opacity="0.5"/>
    <line x1="280" y1="400" x2="300" y2="420" stroke="#ff3e3e" stroke-width="0.5" opacity="0.5"/>
    <line x1="300" y1="420" x2="350" y2="450" stroke="#ff3e3e" stroke-width="0.5" opacity="0.5"/>
    <line x1="220" y1="280" x2="200" y2="200" stroke="#ff3e3e" stroke-width="0.5" opacity="0.5"/>
    <line x1="170" y1="350" x2="120" y2="400" stroke="#ff3e3e" stroke-width="0.5" opacity="0.5"/>
    <line x1="120" y1="400" x2="50" y2="350" stroke="#ff3e3e" stroke-width="0.5" opacity="0.5"/>
  </g>
  
  <!-- Central transition area -->
  <g opacity="0.6">
    <line x1="450" y1="300" x2="500" y2="320" stroke="#8f4dd8" stroke-width="0.5" opacity="0.5"/>
    <line x1="500" y1="320" x2="550" y2="280" stroke="#8f4dd8" stroke-width="0.5" opacity="0.5"/>
    <line x1="550" y1="280" x2="600" y2="320" stroke="#8f4dd8" stroke-width="0.5" opacity="0.5"/>
    <line x1="600" y1="320" x2="650" y2="280" stroke="#8f4dd8" stroke-width="0.5" opacity="0.5"/>
    <line x1="650" y1="280" x2="700" y2="320" stroke="#8f4dd8" stroke-width="0.5" opacity="0.5"/>
    <line x1="700" y1="320" x2="750" y2="330" stroke="#8f4dd8" stroke-width="0.5" opacity="0.5"/>
    
    <circle cx="450" cy="300" r="1.5" fill="#b772d9"/>
    <circle cx="500" cy="320" r="1.5" fill="#b772d9"/>
    <circle cx="550" cy="280" r="1.5" fill="#b772d9"/>
    <circle cx="600" cy="320" r="1.5" fill="#b772d9"/>
    <circle cx="650" cy="280" r="1.5" fill="#b772d9"/>
    <circle cx="700" cy="320" r="1.5" fill="#b772d9"/>
    <circle cx="750" cy="330" r="1.5" fill="#b772d9"/>
  </g>
</svg> 